<mxfile host="app.diagrams.net" agent="Mozilla/5.0 (Windows NT 10.0; Win64; x64) AppleWebKit/537.36 (KHTML, like Gecko) Chrome/133.0.0.0 Safari/537.36" version="26.0.16">
  <diagram name="Page-1" id="Tjnf8F_MXJ03UBufj3Ec">
    <mxGraphModel dx="980" dy="1970" grid="1" gridSize="10" guides="1" tooltips="1" connect="1" arrows="1" fold="1" page="1" pageScale="1" pageWidth="850" pageHeight="1100" math="0" shadow="0">
      <root>
        <mxCell id="0" />
        <mxCell id="1" parent="0" />
        <mxCell id="bgIWfNE-KOHiwSR-T4Z0-4" value="" style="whiteSpace=wrap;html=1&#xa;;dashed=1;dashPattern=8 8;" vertex="1" parent="1">
          <mxGeometry x="170" y="10" width="620" height="780" as="geometry" />
        </mxCell>
        <mxCell id="bgIWfNE-KOHiwSR-T4Z0-5" value="Spring cloud microservice" style="text;html=1;align=center;verticalAlign=middle;whiteSpace=wrap;rounded=0;" vertex="1" parent="1">
          <mxGeometry x="170" y="10" width="160" height="30" as="geometry" />
        </mxCell>
        <mxCell id="bgIWfNE-KOHiwSR-T4Z0-7" value="" style="sketch=0;outlineConnect=0;fontColor=#232F3E;gradientColor=none;fillColor=#8C4FFF;strokeColor=none;dashed=0;verticalLabelPosition=bottom;verticalAlign=top;align=center;html=1;fontSize=12;fontStyle=0;aspect=fixed;pointerEvents=1;shape=mxgraph.aws4.gateway_load_balancer;" vertex="1" parent="1">
          <mxGeometry x="435" y="10" width="60" height="60" as="geometry" />
        </mxCell>
        <mxCell id="bgIWfNE-KOHiwSR-T4Z0-8" value="Spring Cloud Gateway" style="text;html=1;align=center;verticalAlign=middle;whiteSpace=wrap;rounded=0;" vertex="1" parent="1">
          <mxGeometry x="480" y="25" width="160" height="30" as="geometry" />
        </mxCell>
        <mxCell id="bgIWfNE-KOHiwSR-T4Z0-9" value="" style="fillColor=none;strokeColor=#5A6C86;dashed=1;verticalAlign=top;fontStyle=0;fontColor=#5A6C86;whiteSpace=wrap;html=1;movable=0;resizable=0;rotatable=0;deletable=0;editable=0;locked=1;connectable=0;" vertex="1" parent="1">
          <mxGeometry x="195" y="120" width="565" height="500" as="geometry" />
        </mxCell>
        <mxCell id="bgIWfNE-KOHiwSR-T4Z0-10" value="" style="rounded=1;whiteSpace=wrap;html=1;" vertex="1" parent="1">
          <mxGeometry x="250" y="180" width="120" height="60" as="geometry" />
        </mxCell>
        <mxCell id="bgIWfNE-KOHiwSR-T4Z0-11" value="Account Service" style="text;html=1;align=center;verticalAlign=middle;whiteSpace=wrap;rounded=0;" vertex="1" parent="1">
          <mxGeometry x="230" y="195" width="160" height="30" as="geometry" />
        </mxCell>
        <mxCell id="bgIWfNE-KOHiwSR-T4Z0-12" value="" style="rounded=1;whiteSpace=wrap;html=1;" vertex="1" parent="1">
          <mxGeometry x="558" y="180" width="120" height="60" as="geometry" />
        </mxCell>
        <mxCell id="bgIWfNE-KOHiwSR-T4Z0-13" value="Transaction Service" style="text;html=1;align=center;verticalAlign=middle;whiteSpace=wrap;rounded=0;" vertex="1" parent="1">
          <mxGeometry x="538" y="195" width="160" height="30" as="geometry" />
        </mxCell>
        <mxCell id="bgIWfNE-KOHiwSR-T4Z0-14" value="" style="rounded=1;whiteSpace=wrap;html=1;" vertex="1" parent="1">
          <mxGeometry x="410" y="350" width="120" height="60" as="geometry" />
        </mxCell>
        <mxCell id="bgIWfNE-KOHiwSR-T4Z0-15" value="Kafka Brokers" style="text;html=1;align=center;verticalAlign=middle;whiteSpace=wrap;rounded=0;" vertex="1" parent="1">
          <mxGeometry x="390" y="365" width="160" height="30" as="geometry" />
        </mxCell>
        <mxCell id="bgIWfNE-KOHiwSR-T4Z0-16" value="" style="rounded=1;whiteSpace=wrap;html=1;" vertex="1" parent="1">
          <mxGeometry x="250" y="490" width="120" height="60" as="geometry" />
        </mxCell>
        <mxCell id="bgIWfNE-KOHiwSR-T4Z0-56" style="edgeStyle=orthogonalEdgeStyle;rounded=0;orthogonalLoop=1;jettySize=auto;html=1;dashed=1;" edge="1" parent="1">
          <mxGeometry relative="1" as="geometry">
            <mxPoint x="250" y="520" as="sourcePoint" />
            <mxPoint x="420" y="-85" as="targetPoint" />
            <Array as="points">
              <mxPoint x="120" y="520" />
              <mxPoint x="120" y="-85" />
            </Array>
          </mxGeometry>
        </mxCell>
        <mxCell id="bgIWfNE-KOHiwSR-T4Z0-17" value="Notification Service" style="text;html=1;align=center;verticalAlign=middle;whiteSpace=wrap;rounded=0;" vertex="1" parent="1">
          <mxGeometry x="260" y="505" width="100" height="30" as="geometry" />
        </mxCell>
        <mxCell id="bgIWfNE-KOHiwSR-T4Z0-18" value="" style="rounded=1;whiteSpace=wrap;html=1;" vertex="1" parent="1">
          <mxGeometry x="565" y="490" width="120" height="60" as="geometry" />
        </mxCell>
        <mxCell id="bgIWfNE-KOHiwSR-T4Z0-19" value="Bank Statement&lt;div&gt;Service&lt;/div&gt;" style="text;html=1;align=center;verticalAlign=middle;whiteSpace=wrap;rounded=0;" vertex="1" parent="1">
          <mxGeometry x="545" y="505" width="160" height="30" as="geometry" />
        </mxCell>
        <mxCell id="bgIWfNE-KOHiwSR-T4Z0-21" value="" style="sketch=0;points=[[0,0,0],[0.25,0,0],[0.5,0,0],[0.75,0,0],[1,0,0],[0,1,0],[0.25,1,0],[0.5,1,0],[0.75,1,0],[1,1,0],[0,0.25,0],[0,0.5,0],[0,0.75,0],[1,0.25,0],[1,0.5,0],[1,0.75,0]];outlineConnect=0;fontColor=#232F3E;fillColor=#C925D1;strokeColor=#ffffff;dashed=0;verticalLabelPosition=bottom;verticalAlign=top;align=center;html=1;fontSize=12;fontStyle=0;aspect=fixed;shape=mxgraph.aws4.resourceIcon;resIcon=mxgraph.aws4.database;" vertex="1" parent="1">
          <mxGeometry x="606" y="573" width="38" height="38" as="geometry" />
        </mxCell>
        <mxCell id="bgIWfNE-KOHiwSR-T4Z0-22" value="" style="sketch=0;points=[[0,0,0],[0.25,0,0],[0.5,0,0],[0.75,0,0],[1,0,0],[0,1,0],[0.25,1,0],[0.5,1,0],[0.75,1,0],[1,1,0],[0,0.25,0],[0,0.5,0],[0,0.75,0],[1,0.25,0],[1,0.5,0],[1,0.75,0]];outlineConnect=0;fontColor=#232F3E;fillColor=#C925D1;strokeColor=#ffffff;dashed=0;verticalLabelPosition=bottom;verticalAlign=top;align=center;html=1;fontSize=12;fontStyle=0;aspect=fixed;shape=mxgraph.aws4.resourceIcon;resIcon=mxgraph.aws4.database;" vertex="1" parent="1">
          <mxGeometry x="620" y="265" width="38" height="38" as="geometry" />
        </mxCell>
        <mxCell id="bgIWfNE-KOHiwSR-T4Z0-23" value="" style="sketch=0;points=[[0,0,0],[0.25,0,0],[0.5,0,0],[0.75,0,0],[1,0,0],[0,1,0],[0.25,1,0],[0.5,1,0],[0.75,1,0],[1,1,0],[0,0.25,0],[0,0.5,0],[0,0.75,0],[1,0.25,0],[1,0.5,0],[1,0.75,0]];outlineConnect=0;fontColor=#232F3E;fillColor=#C925D1;strokeColor=#ffffff;dashed=0;verticalLabelPosition=bottom;verticalAlign=top;align=center;html=1;fontSize=12;fontStyle=0;aspect=fixed;shape=mxgraph.aws4.resourceIcon;resIcon=mxgraph.aws4.database;" vertex="1" parent="1">
          <mxGeometry x="292" y="269" width="38" height="38" as="geometry" />
        </mxCell>
        <mxCell id="bgIWfNE-KOHiwSR-T4Z0-24" value="" style="sketch=0;points=[[0,0,0],[0.25,0,0],[0.5,0,0],[0.75,0,0],[1,0,0],[0,1,0],[0.25,1,0],[0.5,1,0],[0.75,1,0],[1,1,0],[0,0.25,0],[0,0.5,0],[0,0.75,0],[1,0.25,0],[1,0.5,0],[1,0.75,0]];outlineConnect=0;fontColor=#232F3E;fillColor=#C925D1;strokeColor=#ffffff;dashed=0;verticalLabelPosition=bottom;verticalAlign=top;align=center;html=1;fontSize=12;fontStyle=0;aspect=fixed;shape=mxgraph.aws4.resourceIcon;resIcon=mxgraph.aws4.documentdb_with_mongodb_compatibility;" vertex="1" parent="1">
          <mxGeometry x="290" y="571" width="40" height="40" as="geometry" />
        </mxCell>
        <mxCell id="bgIWfNE-KOHiwSR-T4Z0-25" value="Mongo DB" style="text;html=1;align=center;verticalAlign=middle;whiteSpace=wrap;rounded=0;" vertex="1" parent="1">
          <mxGeometry x="284" y="580" width="160" height="30" as="geometry" />
        </mxCell>
        <mxCell id="bgIWfNE-KOHiwSR-T4Z0-26" value="MySQL" style="text;html=1;align=center;verticalAlign=middle;whiteSpace=wrap;rounded=0;" vertex="1" parent="1">
          <mxGeometry x="645" y="581" width="60" height="30" as="geometry" />
        </mxCell>
        <mxCell id="bgIWfNE-KOHiwSR-T4Z0-27" value="MySQL" style="text;html=1;align=center;verticalAlign=middle;whiteSpace=wrap;rounded=0;" vertex="1" parent="1">
          <mxGeometry x="598" y="303" width="80" height="30" as="geometry" />
        </mxCell>
        <mxCell id="bgIWfNE-KOHiwSR-T4Z0-28" value="MySQL" style="text;html=1;align=center;verticalAlign=middle;whiteSpace=wrap;rounded=0;" vertex="1" parent="1">
          <mxGeometry x="231" y="303" width="160" height="30" as="geometry" />
        </mxCell>
        <mxCell id="bgIWfNE-KOHiwSR-T4Z0-29" value="" style="endArrow=none;dashed=1;html=1;rounded=0;strokeWidth=2;" edge="1" parent="1" target="bgIWfNE-KOHiwSR-T4Z0-7">
          <mxGeometry width="50" height="50" relative="1" as="geometry">
            <mxPoint x="465" y="120" as="sourcePoint" />
            <mxPoint x="465" y="90" as="targetPoint" />
          </mxGeometry>
        </mxCell>
        <mxCell id="bgIWfNE-KOHiwSR-T4Z0-30" value="" style="endArrow=none;dashed=1;html=1;rounded=0;exitX=0.5;exitY=0;exitDx=0;exitDy=0;exitPerimeter=0;" edge="1" parent="1" source="bgIWfNE-KOHiwSR-T4Z0-23">
          <mxGeometry width="50" height="50" relative="1" as="geometry">
            <mxPoint x="260" y="290" as="sourcePoint" />
            <mxPoint x="310" y="240" as="targetPoint" />
          </mxGeometry>
        </mxCell>
        <mxCell id="bgIWfNE-KOHiwSR-T4Z0-31" value="" style="endArrow=classic;html=1;rounded=0;" edge="1" parent="1">
          <mxGeometry relative="1" as="geometry">
            <mxPoint x="460" y="120" as="sourcePoint" />
            <mxPoint x="320" y="180" as="targetPoint" />
          </mxGeometry>
        </mxCell>
        <mxCell id="bgIWfNE-KOHiwSR-T4Z0-35" value="/accounts" style="edgeLabel;html=1;align=center;verticalAlign=middle;resizable=0;points=[];" vertex="1" connectable="0" parent="bgIWfNE-KOHiwSR-T4Z0-31">
          <mxGeometry x="0.0277" y="1" relative="1" as="geometry">
            <mxPoint as="offset" />
          </mxGeometry>
        </mxCell>
        <mxCell id="bgIWfNE-KOHiwSR-T4Z0-36" value="" style="endArrow=classic;html=1;rounded=0;" edge="1" parent="1">
          <mxGeometry relative="1" as="geometry">
            <mxPoint x="465" y="120" as="sourcePoint" />
            <mxPoint x="570" y="180" as="targetPoint" />
          </mxGeometry>
        </mxCell>
        <mxCell id="bgIWfNE-KOHiwSR-T4Z0-37" value="/transactions" style="edgeLabel;resizable=0;html=1;;align=center;verticalAlign=middle;" connectable="0" vertex="1" parent="bgIWfNE-KOHiwSR-T4Z0-36">
          <mxGeometry relative="1" as="geometry" />
        </mxCell>
        <mxCell id="bgIWfNE-KOHiwSR-T4Z0-39" value="" style="endArrow=none;dashed=1;html=1;dashPattern=1 3;strokeWidth=2;rounded=0;" edge="1" parent="1" source="bgIWfNE-KOHiwSR-T4Z0-40">
          <mxGeometry width="50" height="50" relative="1" as="geometry">
            <mxPoint x="490" y="350" as="sourcePoint" />
            <mxPoint x="565" y="240" as="targetPoint" />
          </mxGeometry>
        </mxCell>
        <mxCell id="bgIWfNE-KOHiwSR-T4Z0-41" value="" style="endArrow=none;dashed=1;html=1;dashPattern=1 3;strokeWidth=2;rounded=0;" edge="1" parent="1" target="bgIWfNE-KOHiwSR-T4Z0-40">
          <mxGeometry width="50" height="50" relative="1" as="geometry">
            <mxPoint x="490" y="350" as="sourcePoint" />
            <mxPoint x="565" y="240" as="targetPoint" />
          </mxGeometry>
        </mxCell>
        <mxCell id="bgIWfNE-KOHiwSR-T4Z0-40" value="&lt;font style=&quot;font-size: 10px;&quot;&gt;publish event (transaction-recorded)&lt;/font&gt;" style="text;html=1;align=center;verticalAlign=middle;whiteSpace=wrap;rounded=0;" vertex="1" parent="1">
          <mxGeometry x="440" y="280" width="160" height="30" as="geometry" />
        </mxCell>
        <mxCell id="bgIWfNE-KOHiwSR-T4Z0-44" value="" style="endArrow=none;dashed=1;html=1;rounded=0;entryX=0.683;entryY=1.05;entryDx=0;entryDy=0;entryPerimeter=0;exitX=0.5;exitY=0;exitDx=0;exitDy=0;exitPerimeter=0;" edge="1" parent="1" source="bgIWfNE-KOHiwSR-T4Z0-22" target="bgIWfNE-KOHiwSR-T4Z0-12">
          <mxGeometry width="50" height="50" relative="1" as="geometry">
            <mxPoint x="630" y="260" as="sourcePoint" />
            <mxPoint x="320" y="250" as="targetPoint" />
          </mxGeometry>
        </mxCell>
        <mxCell id="bgIWfNE-KOHiwSR-T4Z0-45" value="" style="endArrow=none;dashed=1;html=1;dashPattern=1 3;strokeWidth=2;rounded=0;exitX=0.648;exitY=1.033;exitDx=0;exitDy=0;exitPerimeter=0;entryX=0.25;entryY=0;entryDx=0;entryDy=0;" edge="1" parent="1">
          <mxGeometry width="50" height="50" relative="1" as="geometry">
            <mxPoint x="583.6800000000001" y="470.9899999999998" as="sourcePoint" />
            <mxPoint x="605" y="490" as="targetPoint" />
          </mxGeometry>
        </mxCell>
        <mxCell id="bgIWfNE-KOHiwSR-T4Z0-47" value="" style="endArrow=none;dashed=1;html=1;dashPattern=1 3;strokeWidth=2;rounded=0;exitX=0.883;exitY=1.03;exitDx=0;exitDy=0;exitPerimeter=0;entryX=0.5;entryY=0;entryDx=0;entryDy=0;" edge="1" parent="1" source="bgIWfNE-KOHiwSR-T4Z0-14" target="bgIWfNE-KOHiwSR-T4Z0-46">
          <mxGeometry width="50" height="50" relative="1" as="geometry">
            <mxPoint x="523" y="407" as="sourcePoint" />
            <mxPoint x="595" y="490" as="targetPoint" />
          </mxGeometry>
        </mxCell>
        <mxCell id="bgIWfNE-KOHiwSR-T4Z0-46" value="&lt;font style=&quot;font-size: 10px;&quot;&gt;publish event (statement-generated)&lt;/font&gt;" style="text;html=1;align=center;verticalAlign=middle;whiteSpace=wrap;rounded=0;" vertex="1" parent="1">
          <mxGeometry x="470" y="440" width="160" height="30" as="geometry" />
        </mxCell>
        <mxCell id="bgIWfNE-KOHiwSR-T4Z0-48" value="" style="endArrow=none;dashed=1;html=1;dashPattern=1 3;strokeWidth=2;rounded=0;" edge="1" parent="1">
          <mxGeometry width="50" height="50" relative="1" as="geometry">
            <mxPoint x="351" y="442" as="sourcePoint" />
            <mxPoint x="411" y="412" as="targetPoint" />
          </mxGeometry>
        </mxCell>
        <mxCell id="bgIWfNE-KOHiwSR-T4Z0-50" value="" style="endArrow=none;dashed=1;html=1;dashPattern=1 3;strokeWidth=2;rounded=0;" edge="1" parent="1">
          <mxGeometry width="50" height="50" relative="1" as="geometry">
            <mxPoint x="330" y="486" as="sourcePoint" />
            <mxPoint x="330" y="466" as="targetPoint" />
          </mxGeometry>
        </mxCell>
        <mxCell id="bgIWfNE-KOHiwSR-T4Z0-49" value="&lt;font style=&quot;font-size: 10px;&quot;&gt;listen event (statement-generated)&lt;/font&gt;" style="text;html=1;align=center;verticalAlign=middle;whiteSpace=wrap;rounded=0;" vertex="1" parent="1">
          <mxGeometry x="250" y="440" width="160" height="30" as="geometry" />
        </mxCell>
        <mxCell id="bgIWfNE-KOHiwSR-T4Z0-51" value="" style="endArrow=none;dashed=1;html=1;rounded=0;exitX=0.5;exitY=0;exitDx=0;exitDy=0;exitPerimeter=0;entryX=0.5;entryY=1;entryDx=0;entryDy=0;" edge="1" parent="1" source="bgIWfNE-KOHiwSR-T4Z0-24" target="bgIWfNE-KOHiwSR-T4Z0-16">
          <mxGeometry width="50" height="50" relative="1" as="geometry">
            <mxPoint x="321" y="279" as="sourcePoint" />
            <mxPoint x="320" y="250" as="targetPoint" />
          </mxGeometry>
        </mxCell>
        <mxCell id="bgIWfNE-KOHiwSR-T4Z0-52" value="" style="endArrow=none;dashed=1;html=1;rounded=0;entryX=0.5;entryY=1;entryDx=0;entryDy=0;" edge="1" parent="1">
          <mxGeometry width="50" height="50" relative="1" as="geometry">
            <mxPoint x="625" y="572" as="sourcePoint" />
            <mxPoint x="625" y="552" as="targetPoint" />
            <Array as="points">
              <mxPoint x="625" y="572" />
            </Array>
          </mxGeometry>
        </mxCell>
        <mxCell id="bgIWfNE-KOHiwSR-T4Z0-53" value="&lt;font style=&quot;font-size: 10px;&quot;&gt;listen event (transaction-recorded)&lt;/font&gt;" style="text;html=1;align=center;verticalAlign=middle;whiteSpace=wrap;rounded=0;" vertex="1" parent="1">
          <mxGeometry x="590" y="400" width="160" height="30" as="geometry" />
        </mxCell>
        <mxCell id="bgIWfNE-KOHiwSR-T4Z0-54" value="" style="endArrow=none;dashed=1;html=1;dashPattern=1 3;strokeWidth=2;rounded=0;exitX=0.888;exitY=0.867;exitDx=0;exitDy=0;exitPerimeter=0;entryX=0;entryY=0.5;entryDx=0;entryDy=0;" edge="1" parent="1" source="bgIWfNE-KOHiwSR-T4Z0-15" target="bgIWfNE-KOHiwSR-T4Z0-53">
          <mxGeometry width="50" height="50" relative="1" as="geometry">
            <mxPoint x="550" y="400" as="sourcePoint" />
            <mxPoint x="600" y="350" as="targetPoint" />
          </mxGeometry>
        </mxCell>
        <mxCell id="bgIWfNE-KOHiwSR-T4Z0-55" value="" style="endArrow=none;dashed=1;html=1;dashPattern=1 3;strokeWidth=2;rounded=0;entryX=0.5;entryY=1;entryDx=0;entryDy=0;" edge="1" parent="1">
          <mxGeometry width="50" height="50" relative="1" as="geometry">
            <mxPoint x="650" y="486" as="sourcePoint" />
            <mxPoint x="670" y="426" as="targetPoint" />
          </mxGeometry>
        </mxCell>
        <mxCell id="bgIWfNE-KOHiwSR-T4Z0-57" value="Email notification" style="text;html=1;align=center;verticalAlign=middle;whiteSpace=wrap;rounded=0;" vertex="1" parent="1">
          <mxGeometry x="170" y="-120" width="160" height="30" as="geometry" />
        </mxCell>
        <mxCell id="bgIWfNE-KOHiwSR-T4Z0-58" value="&lt;font style=&quot;font-size: 10px;&quot;&gt;publish event (account-created)&lt;/font&gt;" style="text;html=1;align=center;verticalAlign=middle;whiteSpace=wrap;rounded=0;" vertex="1" parent="1">
          <mxGeometry x="350" y="303" width="100" height="30" as="geometry" />
        </mxCell>
        <mxCell id="bgIWfNE-KOHiwSR-T4Z0-59" value="" style="endArrow=none;dashed=1;html=1;dashPattern=1 3;strokeWidth=2;rounded=0;" edge="1" parent="1">
          <mxGeometry width="50" height="50" relative="1" as="geometry">
            <mxPoint x="360" y="240" as="sourcePoint" />
            <mxPoint x="390" y="300" as="targetPoint" />
          </mxGeometry>
        </mxCell>
        <mxCell id="bgIWfNE-KOHiwSR-T4Z0-60" value="" style="endArrow=none;dashed=1;html=1;dashPattern=1 3;strokeWidth=2;rounded=0;exitX=0;exitY=0;exitDx=0;exitDy=0;entryX=0.5;entryY=1;entryDx=0;entryDy=0;" edge="1" parent="1" source="bgIWfNE-KOHiwSR-T4Z0-14" target="bgIWfNE-KOHiwSR-T4Z0-58">
          <mxGeometry width="50" height="50" relative="1" as="geometry">
            <mxPoint x="339" y="383" as="sourcePoint" />
            <mxPoint x="389" y="333" as="targetPoint" />
          </mxGeometry>
        </mxCell>
        <mxCell id="bgIWfNE-KOHiwSR-T4Z0-61" value="&lt;font style=&quot;font-size: 10px;&quot;&gt;listen event&amp;nbsp;&lt;/font&gt;&lt;div&gt;&lt;font style=&quot;font-size: 10px;&quot;&gt;(account-created)&lt;/font&gt;&lt;/div&gt;" style="text;html=1;align=center;verticalAlign=middle;whiteSpace=wrap;rounded=0;" vertex="1" parent="1">
          <mxGeometry x="410" y="500" width="110" height="30" as="geometry" />
        </mxCell>
        <mxCell id="bgIWfNE-KOHiwSR-T4Z0-62" value="" style="endArrow=none;dashed=1;html=1;dashPattern=1 3;strokeWidth=2;rounded=0;exitX=0.5;exitY=0;exitDx=0;exitDy=0;entryX=0.5;entryY=1;entryDx=0;entryDy=0;" edge="1" parent="1" source="bgIWfNE-KOHiwSR-T4Z0-61" target="bgIWfNE-KOHiwSR-T4Z0-14">
          <mxGeometry width="50" height="50" relative="1" as="geometry">
            <mxPoint x="450" y="480" as="sourcePoint" />
            <mxPoint x="460" y="410" as="targetPoint" />
          </mxGeometry>
        </mxCell>
        <mxCell id="bgIWfNE-KOHiwSR-T4Z0-63" value="" style="endArrow=none;dashed=1;html=1;dashPattern=1 3;strokeWidth=2;rounded=0;exitX=1.03;exitY=0.39;exitDx=0;exitDy=0;exitPerimeter=0;" edge="1" parent="1">
          <mxGeometry width="50" height="50" relative="1" as="geometry">
            <mxPoint x="382.5999999999999" y="513.4000000000001" as="sourcePoint" />
            <mxPoint x="419" y="514.0371991247266" as="targetPoint" />
          </mxGeometry>
        </mxCell>
        <mxCell id="bgIWfNE-KOHiwSR-T4Z0-65" value="" style="shape=cylinder3;whiteSpace=wrap;html=1;boundedLbl=1;backgroundOutline=1;size=15;" vertex="1" parent="1">
          <mxGeometry x="220" y="660" width="100" height="80" as="geometry" />
        </mxCell>
        <mxCell id="bgIWfNE-KOHiwSR-T4Z0-66" value="Zipkin" style="text;html=1;align=center;verticalAlign=middle;whiteSpace=wrap;rounded=0;" vertex="1" parent="1">
          <mxGeometry x="220" y="700" width="100" height="30" as="geometry" />
        </mxCell>
        <mxCell id="bgIWfNE-KOHiwSR-T4Z0-67" value="Distribuit Tracing" style="text;html=1;align=center;verticalAlign=middle;whiteSpace=wrap;rounded=0;" vertex="1" parent="1">
          <mxGeometry x="220" y="740" width="100" height="30" as="geometry" />
        </mxCell>
        <mxCell id="bgIWfNE-KOHiwSR-T4Z0-70" value="" style="endArrow=none;dashed=1;html=1;dashPattern=1 3;strokeWidth=2;rounded=0;exitX=0.5;exitY=0;exitDx=0;exitDy=0;exitPerimeter=0;" edge="1" parent="1" source="bgIWfNE-KOHiwSR-T4Z0-65">
          <mxGeometry width="50" height="50" relative="1" as="geometry">
            <mxPoint x="220" y="670" as="sourcePoint" />
            <mxPoint x="270" y="620" as="targetPoint" />
          </mxGeometry>
        </mxCell>
        <mxCell id="bgIWfNE-KOHiwSR-T4Z0-71" value="" style="rounded=1;whiteSpace=wrap;html=1;" vertex="1" parent="1">
          <mxGeometry x="400" y="680" width="120" height="60" as="geometry" />
        </mxCell>
        <mxCell id="bgIWfNE-KOHiwSR-T4Z0-72" value="" style="rounded=1;whiteSpace=wrap;html=1;" vertex="1" parent="1">
          <mxGeometry x="598" y="680" width="120" height="60" as="geometry" />
        </mxCell>
        <mxCell id="bgIWfNE-KOHiwSR-T4Z0-73" value="Eureka Server" style="text;html=1;align=center;verticalAlign=middle;whiteSpace=wrap;rounded=0;" vertex="1" parent="1">
          <mxGeometry x="415" y="698" width="100" height="30" as="geometry" />
        </mxCell>
        <mxCell id="bgIWfNE-KOHiwSR-T4Z0-74" value="Config Server" style="text;html=1;align=center;verticalAlign=middle;whiteSpace=wrap;rounded=0;" vertex="1" parent="1">
          <mxGeometry x="608" y="695" width="100" height="30" as="geometry" />
        </mxCell>
        <mxCell id="bgIWfNE-KOHiwSR-T4Z0-75" value="" style="endArrow=none;dashed=1;html=1;dashPattern=1 3;strokeWidth=2;rounded=0;exitX=0.5;exitY=0;exitDx=0;exitDy=0;" edge="1" parent="1" source="bgIWfNE-KOHiwSR-T4Z0-71">
          <mxGeometry width="50" height="50" relative="1" as="geometry">
            <mxPoint x="420" y="670" as="sourcePoint" />
            <mxPoint x="460" y="620" as="targetPoint" />
          </mxGeometry>
        </mxCell>
        <mxCell id="bgIWfNE-KOHiwSR-T4Z0-76" value="" style="endArrow=none;dashed=1;html=1;dashPattern=1 3;strokeWidth=2;rounded=0;entryX=0;entryY=0.5;entryDx=0;entryDy=0;" edge="1" parent="1" target="bgIWfNE-KOHiwSR-T4Z0-72">
          <mxGeometry width="50" height="50" relative="1" as="geometry">
            <mxPoint x="520" y="710" as="sourcePoint" />
            <mxPoint x="570" y="660" as="targetPoint" />
          </mxGeometry>
        </mxCell>
        <mxCell id="bgIWfNE-KOHiwSR-T4Z0-78" value="" style="endArrow=none;dashed=1;html=1;dashPattern=1 3;strokeWidth=2;rounded=0;exitX=0.5;exitY=0;exitDx=0;exitDy=0;" edge="1" parent="1">
          <mxGeometry width="50" height="50" relative="1" as="geometry">
            <mxPoint x="657.5" y="680" as="sourcePoint" />
            <mxPoint x="657.5" y="620" as="targetPoint" />
          </mxGeometry>
        </mxCell>
        <mxCell id="bgIWfNE-KOHiwSR-T4Z0-79" value="Admin" style="sketch=0;outlineConnect=0;fontColor=#232F3E;gradientColor=none;fillColor=#232F3D;strokeColor=none;dashed=0;verticalLabelPosition=bottom;verticalAlign=top;align=center;html=1;fontSize=12;fontStyle=0;aspect=fixed;pointerEvents=1;shape=mxgraph.aws4.authenticated_user;" vertex="1" parent="1">
          <mxGeometry x="650" y="-110" width="50" height="50" as="geometry" />
        </mxCell>
        <mxCell id="bgIWfNE-KOHiwSR-T4Z0-80" value="Client" style="sketch=0;outlineConnect=0;fontColor=#232F3E;gradientColor=none;fillColor=#232F3D;strokeColor=none;dashed=0;verticalLabelPosition=bottom;verticalAlign=top;align=center;html=1;fontSize=12;fontStyle=0;aspect=fixed;pointerEvents=1;shape=mxgraph.aws4.authenticated_user;" vertex="1" parent="1">
          <mxGeometry x="444" y="-110" width="50" height="50" as="geometry" />
        </mxCell>
        <mxCell id="bgIWfNE-KOHiwSR-T4Z0-81" value="" style="endArrow=classic;startArrow=classic;html=1;rounded=0;" edge="1" parent="1" source="bgIWfNE-KOHiwSR-T4Z0-7">
          <mxGeometry width="50" height="50" relative="1" as="geometry">
            <mxPoint x="420" y="10" as="sourcePoint" />
            <mxPoint x="465" y="-40" as="targetPoint" />
          </mxGeometry>
        </mxCell>
        <mxCell id="bgIWfNE-KOHiwSR-T4Z0-82" value="" style="endArrow=classic;startArrow=classic;html=1;rounded=0;" edge="1" parent="1" source="bgIWfNE-KOHiwSR-T4Z0-7">
          <mxGeometry width="50" height="50" relative="1" as="geometry">
            <mxPoint x="475" y="20" as="sourcePoint" />
            <mxPoint x="650" y="-50" as="targetPoint" />
            <Array as="points" />
          </mxGeometry>
        </mxCell>
        <mxCell id="bgIWfNE-KOHiwSR-T4Z0-83" style="edgeStyle=orthogonalEdgeStyle;rounded=0;orthogonalLoop=1;jettySize=auto;html=1;entryX=1;entryY=0.5;entryDx=0;entryDy=0;" edge="1" parent="1" target="bgIWfNE-KOHiwSR-T4Z0-19">
          <mxGeometry relative="1" as="geometry">
            <mxPoint x="470" y="120" as="sourcePoint" />
            <Array as="points">
              <mxPoint x="470" y="121" />
              <mxPoint x="750" y="121" />
              <mxPoint x="750" y="520" />
            </Array>
          </mxGeometry>
        </mxCell>
        <mxCell id="bgIWfNE-KOHiwSR-T4Z0-84" value="/statements" style="edgeLabel;resizable=0;html=1;;align=center;verticalAlign=middle;" connectable="0" vertex="1" parent="1">
          <mxGeometry x="625.0045885274675" y="119.99833630140981" as="geometry">
            <mxPoint x="18" y="4" as="offset" />
          </mxGeometry>
        </mxCell>
      </root>
    </mxGraphModel>
  </diagram>
</mxfile>
